<mxfile host="app.diagrams.net" modified="2021-12-31T08:38:46.131Z" agent="5.0 (Macintosh; Intel Mac OS X 10_15_7) AppleWebKit/537.36 (KHTML, like Gecko) Chrome/96.0.4664.110 Safari/537.36" etag="LQkZf7iUgKHvxpkqBPZ1" version="16.1.0" type="github">
  <diagram id="0Hyo9crHN1b6GhM8ucIp" name="Page-1">
    <mxGraphModel dx="2032" dy="780" grid="1" gridSize="10" guides="1" tooltips="1" connect="1" arrows="1" fold="1" page="1" pageScale="1" pageWidth="827" pageHeight="1169" math="0" shadow="0">
      <root>
        <mxCell id="0" />
        <mxCell id="1" parent="0" />
        <mxCell id="I_ztgK0ZpRnI9gDDNjhG-7" value="" style="rounded=1;whiteSpace=wrap;html=1;" vertex="1" parent="1">
          <mxGeometry x="234" y="500" width="360" height="240" as="geometry" />
        </mxCell>
        <mxCell id="I_ztgK0ZpRnI9gDDNjhG-22" value="" style="rounded=1;whiteSpace=wrap;html=1;" vertex="1" parent="1">
          <mxGeometry x="186" y="230" width="456" height="120" as="geometry" />
        </mxCell>
        <mxCell id="I_ztgK0ZpRnI9gDDNjhG-28" style="edgeStyle=orthogonalEdgeStyle;rounded=0;orthogonalLoop=1;jettySize=auto;html=1;" edge="1" parent="1" source="I_ztgK0ZpRnI9gDDNjhG-5" target="I_ztgK0ZpRnI9gDDNjhG-23">
          <mxGeometry relative="1" as="geometry" />
        </mxCell>
        <mxCell id="I_ztgK0ZpRnI9gDDNjhG-29" style="edgeStyle=orthogonalEdgeStyle;rounded=0;orthogonalLoop=1;jettySize=auto;html=1;" edge="1" parent="1" source="I_ztgK0ZpRnI9gDDNjhG-5" target="I_ztgK0ZpRnI9gDDNjhG-25">
          <mxGeometry relative="1" as="geometry" />
        </mxCell>
        <mxCell id="I_ztgK0ZpRnI9gDDNjhG-30" style="edgeStyle=orthogonalEdgeStyle;rounded=0;orthogonalLoop=1;jettySize=auto;html=1;entryX=0.5;entryY=1;entryDx=0;entryDy=0;" edge="1" parent="1" source="I_ztgK0ZpRnI9gDDNjhG-5" target="I_ztgK0ZpRnI9gDDNjhG-26">
          <mxGeometry relative="1" as="geometry" />
        </mxCell>
        <mxCell id="I_ztgK0ZpRnI9gDDNjhG-5" value="应用层数据" style="rounded=1;whiteSpace=wrap;html=1;" vertex="1" parent="1">
          <mxGeometry x="354" y="390" width="120" height="60" as="geometry" />
        </mxCell>
        <mxCell id="I_ztgK0ZpRnI9gDDNjhG-20" style="edgeStyle=orthogonalEdgeStyle;rounded=0;orthogonalLoop=1;jettySize=auto;html=1;exitX=0.5;exitY=0;exitDx=0;exitDy=0;entryX=0.5;entryY=1;entryDx=0;entryDy=0;" edge="1" parent="1" source="I_ztgK0ZpRnI9gDDNjhG-7" target="I_ztgK0ZpRnI9gDDNjhG-5">
          <mxGeometry relative="1" as="geometry" />
        </mxCell>
        <mxCell id="I_ztgK0ZpRnI9gDDNjhG-8" value="" style="rounded=1;whiteSpace=wrap;html=1;" vertex="1" parent="1">
          <mxGeometry x="434" y="525" width="120" height="60" as="geometry" />
        </mxCell>
        <mxCell id="I_ztgK0ZpRnI9gDDNjhG-9" value="" style="rounded=1;whiteSpace=wrap;html=1;" vertex="1" parent="1">
          <mxGeometry x="254" y="525" width="120" height="60" as="geometry" />
        </mxCell>
        <mxCell id="I_ztgK0ZpRnI9gDDNjhG-10" value="" style="rounded=1;whiteSpace=wrap;html=1;" vertex="1" parent="1">
          <mxGeometry x="354" y="630" width="120" height="60" as="geometry" />
        </mxCell>
        <mxCell id="I_ztgK0ZpRnI9gDDNjhG-14" value="" style="rounded=1;whiteSpace=wrap;html=1;" vertex="1" parent="1">
          <mxGeometry x="264" y="535" width="120" height="60" as="geometry" />
        </mxCell>
        <mxCell id="I_ztgK0ZpRnI9gDDNjhG-15" value="数据清洗..." style="rounded=1;whiteSpace=wrap;html=1;" vertex="1" parent="1">
          <mxGeometry x="274" y="545" width="120" height="60" as="geometry" />
        </mxCell>
        <mxCell id="I_ztgK0ZpRnI9gDDNjhG-16" value="" style="rounded=1;whiteSpace=wrap;html=1;" vertex="1" parent="1">
          <mxGeometry x="364" y="640" width="120" height="60" as="geometry" />
        </mxCell>
        <mxCell id="I_ztgK0ZpRnI9gDDNjhG-17" value="数据采集..." style="rounded=1;whiteSpace=wrap;html=1;" vertex="1" parent="1">
          <mxGeometry x="374" y="650" width="120" height="60" as="geometry" />
        </mxCell>
        <mxCell id="I_ztgK0ZpRnI9gDDNjhG-18" value="" style="rounded=1;whiteSpace=wrap;html=1;" vertex="1" parent="1">
          <mxGeometry x="444" y="535" width="120" height="60" as="geometry" />
        </mxCell>
        <mxCell id="I_ztgK0ZpRnI9gDDNjhG-19" value="数据生成..." style="rounded=1;whiteSpace=wrap;html=1;" vertex="1" parent="1">
          <mxGeometry x="454" y="545" width="120" height="60" as="geometry" />
        </mxCell>
        <mxCell id="I_ztgK0ZpRnI9gDDNjhG-23" value="产业链图谱" style="ellipse;whiteSpace=wrap;html=1;" vertex="1" parent="1">
          <mxGeometry x="214" y="250" width="120" height="80" as="geometry" />
        </mxCell>
        <mxCell id="I_ztgK0ZpRnI9gDDNjhG-25" value="app1" style="ellipse;whiteSpace=wrap;html=1;" vertex="1" parent="1">
          <mxGeometry x="354" y="250" width="120" height="80" as="geometry" />
        </mxCell>
        <mxCell id="I_ztgK0ZpRnI9gDDNjhG-26" value="app..." style="ellipse;whiteSpace=wrap;html=1;" vertex="1" parent="1">
          <mxGeometry x="494" y="250" width="120" height="80" as="geometry" />
        </mxCell>
      </root>
    </mxGraphModel>
  </diagram>
</mxfile>
